<?xml version="1.0" encoding="UTF-8"?>
<svg xmlns="http://www.w3.org/2000/svg" version="1.1" xmlns:xlink="http://www.w3.org/1999/xlink" viewBox="0 0 122.9 103">
  <!-- Generator: Adobe Illustrator 29.3.1, SVG Export Plug-In . SVG Version: 2.1.0 Build 151)  -->
  <defs>
    <style>
      .st0 {
        fill: #537918;
      }

      .st0, .st1, .st2, .st3, .st4 {
        fill-rule: evenodd;
      }

      .st1 {
        fill: #e19600;
      }

      .st2 {
        fill: #d08500;
      }

      .st3 {
        fill: #016b00;
      }

      .st4 {
        fill: #9f573c;
      }
    </style>
  </defs>
  <g id="mango">
    <g>
      <path class="st2" d="M82.2,27.1c-1.4-2.3-3.2-4.5-5.2-6.6-2-2-4.4-4-7.1-5.7-7.9-2.9-15-3.8-21.3-2.8-6.7,1-12.6,4.1-17.7,8.8-9.5,8.8-10,15.9-10.6,24.8-.2,3.7-.5,7.6-1.4,12.1-1,5-2.4,9.4-4.3,13.2-2,4-4.4,7.4-7,10-2.2,3-3.1,5.5-2.4,7.5,0,0,0,0,0,0,.7,2.1,3,3.9,7,5.4,0,0,.1,0,.1,0,13.1,5.2,26.6,5.4,38.7,1.3,12-4.1,22.4-12.4,29.4-24.5,4.2-7.3,6.8-15.2,7.1-23,.3-7-1.3-14-5.4-20.6h0ZM82.9,19.8c1.3,1.5,2.4,3.1,3.4,4.8,4.6,7.5,6.4,15.4,6.1,23.3-.3,8.7-3.2,17.4-7.8,25.3-7.6,13.2-19,22.3-32.1,26.7-13.1,4.4-27.9,4.2-42-1.4,0,0-.1,0-.1,0-5.4-2.2-8.7-5-9.9-8.5,0,0,0,0,0-.1-1.1-3.6,0-7.7,3.3-12.1h0c0,0,.2-.2.2-.3,2.3-2.2,4.4-5.2,6.1-8.8,1.7-3.4,3-7.4,3.9-12,.8-4.2,1.1-8,1.3-11.5.7-9.9,1.2-17.9,12.1-28.1,5.8-5.4,12.5-8.9,20.3-10.1,6.6-1,13.9-.3,22,2.4,5.3,2.6,9.8,5.9,13.3,10.3h0Z"/>
      <path class="st1" d="M83.8,26.3c-1.5-2.4-3.3-4.7-5.5-6.8-2.1-2.1-4.6-4.1-7.5-5.9-8.3-3-15.7-3.9-22.3-2.9-7,1.1-13.2,4.2-18.5,9.1-9.9,9-10.4,16.4-11,25.5-.3,3.8-.5,7.8-1.4,12.4-1,5.1-2.5,9.6-4.5,13.6-2.1,4.1-4.6,7.6-7.3,10.3-2.3,3.1-3.2,5.7-2.6,7.7h0c.7,2.2,3.1,4.1,7.3,5.7,0,0,.1,0,.2,0,13.7,5.3,27.8,5.6,40.4,1.4,12.5-4.2,23.4-12.8,30.7-25.2,4.4-7.5,7.2-15.6,7.5-23.7.3-7.2-1.4-14.4-5.6-21.2h0Z"/>
    </g>
  </g>
  <g id="mango-stem">
    <path class="st4" d="M76.6,8.6h.1c0-.1,0,0,0,0l-2.3,5c-1.6-1.3-3.2-2.8-4.7-4.1l3.9-7.9c.7-1.4,2.5-2,3.9-1.3s2,2.5,1.3,3.9l-2.2,4.4h0Z"/>
  </g>
  <g id="mango-leaf">
    <path class="st0" d="M77.4,11.6c16.5.7,20.9,0,36.3,5.9-16.3-.7-20.7-1.1-36.3-5.9h0Z"/>
    <path class="st3" d="M76.7,8.5c2.1-1.9,4.4-3.5,7.3-4.5,7.4-2.6,17.2-.5,23.9,3.2,5.4,2.9,10.9,7.5,15,12.4-5.6,2.2-13.3,3.2-21.8,3.7-6.4.4-12.4-.6-18.2-3.5l.3.3-.2-.2c-3-2.1-6-4.2-8.6-6.4l2.3-5h0Z"/>
  </g>
</svg>