<?xml version="1.0" encoding="UTF-8"?>
<svg id="orange" xmlns="http://www.w3.org/2000/svg" version="1.1" xmlns:xlink="http://www.w3.org/1999/xlink" viewBox="0 0 122.9 120.6">
  <!-- Generator: Adobe Illustrator 29.3.1, SVG Export Plug-In . SVG Version: 2.1.0 Build 151)  -->
  <defs>
    <style>
      .st0 {
        fill: #e26b1b;
      }

      .st1 {
        fill: #ffe7c8;
      }

      .st2 {
        stroke: #fea832;
        stroke-miterlimit: 2.6;
        stroke-width: .2px;
      }

      .st2, .st3 {
        fill: #fea832;
      }
    </style>
  </defs>
  <circle id="cover" class="st0" cx="65.2" cy="60.3" r="54.1"/>
  <ellipse id="inside_cover" class="st1" cx="65.2" cy="60.3" rx="46.3" ry="44.7"/>
  <g id="oranges">
    <path id="_x38_" class="st3" d="M67.7,63.3c0,0,.1,0,.2-.1.1,0,.2,0,.3-.1.4-.2.7-.4,1-.6,1-.8,1.6-1.9,1.6-3.2s-.6-2.4-1.6-3.2c-.8-.7-1.8-1.1-3-1.2-.2,0-.3,0-.5,0-.1,0-.2,0-.3,0-1.5,0-2.8.5-3.8,1.3,0,0-.1.2-.2.2,0,0,0,0-.1.1-.8.8-1.2,1.8-1.2,2.9s.6,2.4,1.6,3.2c1,.8,2.3,1.3,3.8,1.3.8,0,1.6-.2,2.2-.4h0Z"/>
    <path id="_x37_" class="st3" d="M60.8,52.7c1.2-.6,2.5-1.1,4-1.3l.6-29c-1.9-1.6-4.3-2.5-7-2.8-2.8-.3-5.7,0-8.7.7-3,.8-5.9,2-8.3,3.7-3.2,2.2-5.7,5.1-6.7,8.4l26.1,20.3h0Z"/>
    <path id="_x36_" class="st3" d="M54.5,59.4v-.2c0-1.5.5-3,1.3-4.3l-25.3-19.6c-4.9,4.5-8,9.2-8.9,14.2-.8,5.1.7,10.8,5.4,17l27.5-7h0Z"/>
    <path id="_x35_" class="st3" d="M59.5,66.8c-.7-.4-1.3-.8-1.8-1.2-.6-.5-1.2-1.1-1.7-1.8l-27,6.9c.6,6.5,2.7,11.6,6.4,15.1,3.6,3.3,8.7,5.3,15.6,5.9l8.5-25h0Z"/>
    <path id="_x34_" class="st3" d="M68.1,68c-.8.2-1.7.3-2.6.3s-.4,0-.6,0l-8.7,25.6c2.2,2.4,5.3,4.2,8.7,5.2,2.7.8,5.7,1.1,8.6,1,2.8-.2,5.5-.8,7.8-1.9,2.1-1,3.8-2.5,5-4.4l-18.2-25.8h0Z"/>
    <path id="_x33_" class="st3" d="M76.4,60c-.2,2.2-1.4,4.2-3.2,5.6,0,0-.2.1-.3.2l17.4,24.7c6.6-2.5,11.1-5.9,13.4-10.7,2.4-5,2.4-11.6,0-20.1l-27.3.3h0Z"/>
    <path id="_x32_" class="st2" d="M74.2,53.7c.5.5.9,1.1,1.2,1.7l28.2-.3c1.1-4.9.4-9.5-1.8-13.2-2.1-3.7-5.7-6.5-10.3-8.2l-17.4,20h0Z"/>
    <path id="_x31_" class="st3" d="M69.1,50.7c.3,0,.5.2.7.2l17.6-20.3c-1.8-4.5-4.2-7.2-7.3-8.5-2.8-1.2-6.4-1.1-10.5,0l-.6,28.7h0Z"/>
  </g>
</svg>