<?xml version="1.0" encoding="UTF-8"?>
<svg xmlns="http://www.w3.org/2000/svg" version="1.1" xmlns:xlink="http://www.w3.org/1999/xlink" viewBox="0 0 106.3 122.9">
  <!-- Generator: Adobe Illustrator 29.3.1, SVG Export Plug-In . SVG Version: 2.1.0 Build 151)  -->
  <defs>
    <style>
      .st0 {
        fill: #0b5700;
      }

      .st1 {
        fill: url(#linear-gradient);
      }
    </style>
    <linearGradient id="linear-gradient" x1="6.1" y1="75.3" x2="102.4" y2="75.3" gradientUnits="userSpaceOnUse">
      <stop offset=".4" stop-color="#ff6978"/>
      <stop offset="1" stop-color="#940010"/>
    </linearGradient>
  </defs>
  <g id="fruit">
    <path class="st1" d="M57.6,33.7c3.9,3,9.2,9.2,11.8,14,4.8,8.6,7.2,16.6,6.5,28.5,0,1.3-1.2,2.3-2.5,2.2-1.3,0-2.3-1.2-2.2-2.5.6-11-1.7-21.2-6-29.1-4.2-7.5-10.2-12.9-17.5-14.8-8.4-1.4-15.8-.3-21.8,2.6-6.3,3-11.2,7.9-14.6,13.8-3.4,6-5.3,13.1-5.3,20.5,0,10.8,3.8,22.2,12.2,31.3,4.2,4.6,9.5,8.5,15.8,11.6,6.2,3.1,13.5,5.5,21.7,7.2,7.5-2.3,14.2-5.1,20-8.6,5.9-3.5,10.9-7.6,14.9-12.4,7.6-8.9,11.3-19.4,11.6-29.4.2-7.3-1.4-14.4-4.8-20.3-3.3-5.9-8.3-10.6-14.7-13.5-6.4-2.8-14.2-3.8-23.5-2.1h0l-1.8,1Z"/>
    <path d="M56.8,29.4c10.9-2.3,20.1-1.3,27.6,2,7.3,3.2,12.9,8.6,16.6,15.2,3.7,6.5,5.5,14.3,5.3,22.3-.3,10.8-4.3,22.1-12.4,31.7-4.3,5.1-9.6,9.4-15.8,13.1-6.2,3.7-13.2,6.7-21.2,9-.4.1-.8.1-1.1,0-8.7-1.7-16.4-4.2-23-7.5-6.7-3.3-12.4-7.5-16.9-12.4-9.1-9.9-13.3-22.2-13.2-33.9,0-8,2-15.7,5.8-22.3,3.8-6.6,9.3-12.1,16.3-15.4,1.5-.7,3-1.3,4.7-1.8l6.6-1.5h-.1c3.8-.5,7.9-.4,12.3.2.2,0,.4,0,.6,0h.3c1,.2,2,.4,3,.7v-.2s4.7.4,4.7.4v.2h0ZM59.5,33.6c3.9,3,7.2,7,9.8,11.6,4.7,8.5,7.1,19.3,6.5,31,0,1.3-1.2,2.2-2.4,2.2-1.3,0-2.2-1.2-2.2-2.4.6-10.8-1.6-20.8-5.9-28.5-4.1-7.3-10-12.6-17.1-14.6-8.3-1.4-15.5-.3-21.4,2.6-6.1,2.9-11,7.7-14.3,13.5-3.4,5.9-5.2,12.9-5.2,20.1,0,10.6,3.7,21.7,12,30.7,4.2,4.5,9.4,8.3,15.6,11.4,6.1,3,13.2,5.4,21.3,7,7.3-2.2,13.9-5,19.6-8.4,5.8-3.4,10.7-7.4,14.7-12.1,7.4-8.8,11.1-19,11.3-28.8.2-7.2-1.4-14.1-4.7-19.9-3.2-5.8-8.1-10.4-14.4-13.2-6.3-2.8-14-3.7-23-2.1h0Z"/>
  </g>
  <g id="leaf">
    <path d="M112.7,10.9c-2.6-2.2-5.3-4-8-5.4-7.5-3.9-15-4.6-21.6-3.1-.7.2-1.4.3-2.1.5-1.1.4-2.2.8-3.3,1.3-4.3,1.8-7.9,4.3-10.9,7.9-.8.9-1.5,1.8-2.1,2.8-1.6-.4-3-.9-4.4-1.5-.3-1.8-2.7-11.3-3.3-13.2l-4.9,1.5c.9,2.4,3.5,11.1,3.8,13.2,0,.2,0,.4,0,.6.3,2.7.2,5.1-.3,7.4-.5,2.3-1.4,4.4-2.6,6.4,1.8.3,3,1.6,3.5,3,1.7-2.6,3-5.3,3.6-8.4.4-1.7.6-3.4.6-5.3,1,.3,2,.6,3,.9,0,0,0,0,0,0,4.8,6,10.7,9,16.9,9.7,6.9.8,14.1-1.4,20.6-5.4,2.1-1.3,4.2-2.8,6.1-4.4,1.9-1.6,3.7-3.3,5.4-5.2l.2-.2c.9-.9.8-2.3-.2-3.2ZM104.3,16c-1.8,1.5-3.6,2.8-5.5,4-5.7,3.5-11.9,5.4-17.7,4.7-3.5-.4-6.9-1.7-10-4.2,1.6,0,3.3,0,4.9,0,6.8-.5,14.1-2.4,20.8-6,1.1-.6,1.6-2,1-3.1-.6-1.1-2-1.6-3.1-1-6.1,3.2-12.8,5.1-19,5.5-2.1.1-4.1.1-6,0,.2-.2.4-.5.5-.7,3.3-3.9,8.2-7,13.8-8.2,5.6-1.2,12.1-.7,18.6,2.7,1.7.9,3.4,1.9,5.1,3.2-1.1,1.1-2.2,2.1-3.4,3.1Z"/>
    <path class="st0" d="M69.4,15.9c2,.2,4,.2,6.1,0,6.3-.4,13-2.3,19.3-5.6,1.1-.6,2.6-.2,3.2,1s.2,2.6-1,3.2c-6.8,3.6-14.2,5.6-21.1,6.1-1.7.1-3.4.1-5,0,3.1,2.5,6.6,3.8,10.1,4.2,5.9.6,12.2-1.2,17.9-4.8,2-1.2,3.8-2.6,5.6-4.1,1.2-1,2.3-2.1,3.5-3.2-1.7-1.3-3.4-2.4-5.1-3.3-6.6-3.4-13.1-4-18.8-2.7-5.7,1.3-10.6,4.4-14,8.3-.2.2-.4.4-.6.7h0Z"/>
  </g>
</svg>