<?xml version="1.0" encoding="UTF-8"?>
<svg xmlns="http://www.w3.org/2000/svg" version="1.1" xmlns:xlink="http://www.w3.org/1999/xlink" viewBox="0 0 109.9 55.7">
  <!-- Generator: Adobe Illustrator 29.3.1, SVG Export Plug-In . SVG Version: 2.1.0 Build 151)  -->
  <defs>
    <style>
      .st0 {
        fill: #ea2200;
      }

      .st1 {
        fill: #133500;
      }
    </style>
  </defs>
  <g id="cover">
    <path class="st0" d="M84.1,32.6c7.3-7,11.9-16.6,12.4-27.3l-83.6-.9c.6,10.7,5.3,20.5,12.6,27.6,7.6,7.4,17.9,12,29.4,12.1,11.4.1,21.7-4.3,29.3-11.4h0Z"/>
    <path class="st1" d="M104.9,5.3c0,13.4-5.6,25.6-14.6,34.3-9,8.8-21.3,14.2-35,14.1-13.7,0-26.2-5.5-35.4-14.2C10.7,30.7,4.8,18.5,4.4,5c0-.6.5-1.1,1.1-1.2h0s2.8,0,2.8,0c.8,11.6,6.1,22,14.1,29.7,8.4,8,19.8,13,32.4,13,12.6,0,23.9-4.9,32.1-12.9h0c7.8-7.6,12.8-18,13.4-29.6h3.6c.6,0,1.1.5,1.2,1.1,0,0,0,0,0,.1h0Z"/>
  </g>
  <g id="seeds">
    <g>
      <path d="M41.4,19.8c-1.5-1.7-3-5-2.6-5.9s2.5-2.2,2.9.8"/>
      <path d="M57.5,16.2c-1.5-1.7-3-5-2.6-5.9s2.5-2.2,2.9.8"/>
      <path d="M84.9,20.8c-1.5-1.7-3-5-2.6-5.9s2.5-2.2,2.9.8"/>
      <path d="M66.8,38.8c-1.5-1.7-3-5-2.6-5.9s2.5-2.2,2.9.8"/>
      <path d="M53.4,38.1c-1.5-1.7-3-5-2.6-5.9s2.5-2.2,2.9.8"/>
      <path d="M69.8,25.4c-1.5-1.7-3-5-2.6-5.9s2.5-2.2,2.9.8"/>
      <path d="M25,16.1c-1.5-1.7-3-5-2.6-5.9s2.5-2.2,2.9.8"/>
      <path d="M31.7,32c-1.5-1.7-3-5-2.6-5.9s2.5-2.2,2.9.8"/>
      <path d="M51.8,27.4c-1.5-1.7-3-5-2.6-5.9s2.5-2.2,2.9.8"/>
      <path d="M79.9,31.8c-1.5-1.7-3-5-2.6-5.9s2.5-2.2,2.9.8"/>
      <path d="M41.8,34.8c-1.5-1.7-3-5-2.6-5.9s2.5-2.2,2.9.8"/>
      <path d="M76.7,14.1c-1.5-1.7-3-5-2.6-5.9s2.5-2.2,2.9.8"/>
    </g>
  </g>
</svg>